<svg id="Group_9" data-name="Group 9" xmlns="http://www.w3.org/2000/svg" width="45.482" height="45.482" viewBox="0 0 45.482 45.482">
  <path id="Path_11" data-name="Path 11" d="M893.185,239.274A1.723,1.723,0,0,0,891.464,241a19.3,19.3,0,0,1-37.44,6.6,1.721,1.721,0,0,0-3.234,1.178A22.745,22.745,0,0,0,894.906,241,1.723,1.723,0,0,0,893.185,239.274Z" transform="translate(-849.424 -218.254)" fill="#0c109c"/>
  <path id="Path_12" data-name="Path 12" d="M891.993,230.1H881.223l-3.887-8.688a1.726,1.726,0,0,0-1.584-1.017H875.7a1.714,1.714,0,0,0-1.555,1.131l-4.456,12.235-3.4-8.484a1.718,1.718,0,0,0-1.559-1.081H864.7a1.725,1.725,0,0,0-1.567,1.011l-2.216,4.893H849.953a1.721,1.721,0,0,0,0,3.442h12.071a1.723,1.723,0,0,0,1.567-1.011L864.6,230.3l3.569,8.916a1.713,1.713,0,0,0,1.6,1.082h.027a1.731,1.731,0,0,0,1.59-1.132l4.544-12.476,2.609,5.83a1.722,1.722,0,0,0,1.571,1.018h11.885a1.721,1.721,0,1,0,0-3.442Zm-22.226,10.073Z" transform="translate(-848.232 -209.079)" fill="#0c109c"/>
  <path id="Path_13" data-name="Path 13" d="M892.348,213.343a22.745,22.745,0,0,0-44.116,7.78,1.721,1.721,0,0,0,3.441,0,19.3,19.3,0,0,1,37.44-6.6,1.721,1.721,0,1,0,3.234-1.177Z" transform="translate(-848.232 -198.382)" fill="#0c109c"/>
</svg>
